<svg viewBox="0 0 612 792" style="position: absolute;" xmlns="http://www.w3.org/2000/svg" xmlns:xlink="http://www.w3.org/1999/xlink"><defs><clipPath id="clipPath89"><rect x="0" y="0" width="612" height="35"></rect></clipPath><clipPath id="clipPath90"><rect x="0" y="749" width="612" height="35"></rect></clipPath></defs><path d="M0,396L612,396" style="stroke:#FFF;stroke-width:792"></path><text x="62 0 69.222 0 73.66 0 78.938 0 84.5 0 89.5 0 92.278 0 96.717" y="49.772" style="fill:#000;font:italic bold 10.0px 'WF_Times New Roman'">N e t S a l e s</text><text x="50 0 56.108 0 61.108 0 65.547 0 69.985 0 75.264 0 79.702 0 84.702 0 88.032 0 91.362 0 95.801 0 100.801 0 105.239 0 112.739 0 116.631 0 121.069 0 123.848 0 128.286 0 134.678 0 137.456 0 144.956 0 147.734 0 152.734 0 159.673 0 163.003 0 165.781 0 169.111 0 173.003 0 178.281 0 183.281 0 188.281 0 192.72 0 196.05 0 198.828 0 203.267 0 209.097 0 214.097 0 219.927 0 224.927 0 229.927 0 234.741 0 242.056 0 249.277 0 253.716 0 257.046 0 263.984 0 268.984 0 276.484 0 281.484 0 285.923 0 289.253 0 293.691 0 298.13 0 303.13 0 308.408 0 313.408 0 316.187 0 321.187 0 326.187 0 330.625 0 336.455 0 340.894 0 345.894 0 353.672 0 358.672 0 363.11 0 366.44 0 370.879 0 378.379 0 385.601 0 388.379 0 391.157 0 398.657 0 401.436 0 406.436 0 413.374 0 417.266 0 421.704 0 429.482 0 436.421 0 441.421 0 445.859 0 449.189 0 451.968 0 456.968 0 464.468 0 469.468 0 475.298 0 480.298 0 485.298 0 490.298 0 495.298 0 500.208 0 506.226 0 511.226 0 518.164 0 520.942 0 525.942 0 530.381 0 533.711 0 538.149 0 542.588 0 546.479" y="67.772" style="fill:#000;font:normal normal 10.0px 'WF_Times New Roman'">L o c a l c u r r e n c y s a l e s i n t h e f i r s t q u a r t e r o f 2 0 1 1 w e r e 1 0 p e r c e n t h i g h e r c o m p a r e d w i t h t h e s a m e p e r i o d o f 2 0 1 0 . T h e i n c r e a s e</text><text x="50 0 52.778 0 57.778 0 62.217 0 64.995 0 69.995 0 74.995 0 79.434 0 86.934 0 93.872 0 101.372 0 104.15 0 111.65 0 119.15 0 124.15 0 128.589 0 131.919 0 136.357 0 140.796 0 145.796 0 151.074 0 156.074 0 160.513 0 165.513 0 169.951 0 173.281 0 176.06 0 181.338 0 186.338 0 192.168 0 197.168 0 201.606 0 206.606 0 209.385 0 214.385 0 221.885 0 226.885 0 231.885 0 238.823 0 246.602 0 251.602 0 254.932 0 261.87 0 269.092 0 273.53 0 277.969 0 285.469 0 288.247 0 295.747 0 298.525 0 303.525 0 306.304 0 312.695 0 317.695 0 322.134 0 326.572 0 329.902 0 331.704 0 338.096 0 343.096 0 348.096 0 352.534 0 355.864 0 358.643 0 363.081 0 368.911 0 371.689 0 376.689 0 381.128 0 388.628 0 391.406 0 398.906 0 403.906 0 408.906 0 413.906 0 418.906 0 426.316 0 432.334 0 437.334 0 444.272 0 447.051 0 454.829 0 459.829 0 463.159 0 468.159 0 473.159 0 477.598 0 485.376 0 489.814 0 494.814 0 500.093 0 507.314 0 511.753 0 518.145 0 525.923 0 530.361 0 533.14 0 538.14 0 540.918 0 548.418 0 551.196" y="79.772" style="fill:#000;font:normal normal 10.0px 'WF_Times New Roman'">i n c l u d e d a 6 t o 7 p e r c e n t b e n e f i t o f h a v i n g o n e m o r e w e e k i n t h i s y e a r ' s q u a r t e r t h a n i n 2 0 1 0 . T h e i m p r o v e m e n t w a s m a i n l y i n</text><text x="50 0 52.778 0 57.778 0 64.717 0 71.387 0 76.387 0 84.165 0 89.165 0 93.604 0 98.604 0 103.604 0 105.405 0 111.797 0 116.235 0 124.014 0 128.452 0 131.692 0 136.602 0 139.38 0 144.38 0 151.88 0 159.658 0 164.097 0 167.427 0 172.427 0 176.865 0 179.644 0 183.535 0 188.535 0 195.757 0 200.757 0 203.535 0 207.974 0 215.474 0 219.912 0 224.351 0 228.789 0 233.789 0 238.789 0 243.789 0 246.567 0 251.006 0 258.506 0 261.836 0 266.836 0 272.666 0 277.666 0 285.166 0 290.166 0 294.604 0 297.935 0 302.373 0 306.812 0 311.812 0 317.09 0 321.528 0 326.528 0 334.028 0 339.028 0 346.528 0 351.528 0 355.967 0 359.297 0 363.735 0 368.174 0 373.174 0 378.452 0 383.452 0 389.282 0 392.061 0 397.061 0 403.999 0 410.669 0 415.669 0 423.447 0 428.447 0 432.886 0 437.886 0 442.886 0 444.688 0 451.079 0 454.971 0 459.409 0 462.188 0 466.626 0 473.018 0 476.348 0 481.348 0 487.178 0 489.956 0 494.956 0 501.895 0 505.225 0 508.003 0 511.333 0 515.225 0 520.503 0 525.503 0 530.503 0 534.941 0 538.271 0 541.05 0 545.488 0 548.818" y="91.772" style="fill:#000;font:normal normal 10.0px 'WF_Times New Roman'">t h e C o m p a n y ' s e m e r g i n g m a r k e t s , w h i c h a c c o u n t e d f o r 5 7 p e r c e n t a n d 5 4 p e r c e n t o f t h e C o m p a n y ' s s a l e s f o r t h e f i r s t q u a r t e r s</text><text x="50 0 55 0 60.83 0 65.83 0 70.83 0 75.645 0 82.959 0 87.397 0 92.397 0 99.897 0 104.897 0 109.897 0 114.897 0 119.897 0 124.897 0 128.228 0 132.666 0 136.558 0 141.558 0 145.996 0 150.435 0 153.213 0 155.991 0 160.991 0 165.43 0 168.208 0 172.883 0 177.468 0 183.137 0 187.788 0 190.566 0 195.005 0 200.283 0 204.175 0 208.613 0 211.392 0 215.83 0 222.222 0 225.552 0 230.552 0 236.382 0 239.16 0 244.16 0 251.099 0 255.537 0 263.315 0 267.754 0 270.994 0 275.903 0 278.682 0 283.682 0 291.182 0 298.96 0 303.398 0 306.729 0 311.729 0 316.167 0 318.945 0 325.337 0 328.115 0 333.115 0 337.554 0 340.884 0 345.322 0 349.761 0 353.652 0 358.091 0 365.591 0 370.591 0 375.591 0 380.591 0 383.091 0 390.591 0 398.369 0 401.147 0 403.926 0 406.704 0 409.482 0 414.482 0 419.482 0 424.482 0 429.482 0 435.313 0 440.313 0 447.813 0 452.813 0 457.251 0 460.581 0 465.02 0 469.458 0 474.458 0 477.236 0 482.236 0 485.015 0 492.515 0 495.293 0 500.293 0 507.231 0 510.562 0 513.34 0 516.67 0 520.562 0 525.84 0 530.84 0 535.84 0 540.278 0 543.608 0 546.387 0 550.825" y="103.772" style="fill:#000;font:normal normal 10.0px 'WF_Times New Roman'">o f 2 0 1 1 a n d 2 0 1 0 , r e s p e c t i v e l y . T o t a l s a l e s f o r t h e e m e r g i n g m a r k e t s i n c r e a s e d $ 6 3 . 0 m i l l i o n , o r 2 1 p e r c e n t , i n t h e f i r s t q u a r t e r</text><text x="50 0 55 0 60.83 0 65.83 0 70.83 0 75.645 0 80.459 0 85.459 0 89.897 0 94.897 0 102.676 0 107.676 0 112.114 0 115.444 0 119.883 0 127.383 0 134.604 0 137.383 0 140.161 0 147.661 0 150.439 0 155.439 0 162.378 0 166.27 0 170.708 0 178.486 0 185.425 0 190.425 0 194.863 0 198.193 0 200.972 0 205.972 0 213.472 0 218.472 0 224.302 0 229.302 0 234.302 0 239.302 0 244.302 0 249.302 0 256.523 0 261.523 0 264.302 0 268.74 0 276.24 0 279.019 0 284.019 0 288.457 0 291.235 0 296.235 0 301.235 0 305.674 0 313.174 0 320.112 0 325.112 0 330.112 0 334.004 0 336.782 0 339.561 0 342.339 0 347.339 0 354.277 0 359.277 0 364.277 0 369.277 0 371.777 0 379.277 0 387.056 0 389.834 0 392.612 0 395.391 0 398.169 0 403.169 0 410.669 0 413.447 0 421.226 0 426.226 0 430.664 0 435.103 0 440.381 0 443.711 0 447.041 0 452.041 0 462.319 0 465.649 0 470.649 0 473.979 0 478.418 0 481.196 0 486.196 0 493.696 0 498.135 0 503.135 0 506.465 0 509.795 0 514.233 0 519.233 0 523.672" y="115.772" style="fill:#000;font:normal normal 10.0px 'WF_Times New Roman'">o f 2 0 1 1 , c o m p a r e d w i t h t h e s a m e p e r i o d o f 2 0 1 0 , w h i c h i n c l u d e d a p o s i t i v e $ 1 3 . 5 m i l l i o n i m p a c t f r o m f o r e i g n c u r r e n c y</text><text x="50 0 54.438 0 59.438 0 63.877 0 68.877 0 73.315 0 78.315 0 83.315 0 90.254 0 93.584 0 98.022 0 100.801 0 107.739 0 112.178 0 117.178 0 121.616 0 126.616 0 131.616 0 136.055 0 139.946 0 144.946 0 151.055 0 156.055 0 160.493 0 163.271 0 168.271 0 173.271 0 176.05 0 181.05 0 188.55 0 191.328 0 196.328 0 203.267 0 206.045 0 213.823 0 218.823 0 223.262 0 227.7 0 232.979 0 237.979 0 243.809 0 247.139 0 252.139 0 255.469 0 259.907 0 262.686 0 267.686 0 275.186 0 279.624 0 284.624 0 287.954 0 291.284 0 295.723 0 300.723 0 305.161 0 312.661 0 317.661 0 325.161 0 327.939 0 332.939 0 339.878 0 343.77 0 348.208 0 350.986 0 355.425 0 361.816 0 366.255 0 371.255 0 379.033 0 384.033 0 388.472 0 391.802 0 394.58 0 398.472 0 403.472 0 408.472 0 413.472 0 416.25 0 421.25 0 428.188 0 433.188 0 436.519 0 441.519 0 448.74 0 451.519 0 459.019 0 461.797 0 469.297 0 472.075 0 477.075 0 481.514 0 485.405 0 492.344 0 500.122 0 504.561 0 507.891 0 512.891 0 517.329 0 520.107 0 526.499 0 533.721 0 538.159 0 544.551 0 549.551" y="127.772" style="fill:#000;font:normal normal 10.0px 'WF_Times New Roman'">e x c h a n g e r a t e c h a n g e s . E x c l u d i n g t h e i m p a c t o f f o r e i g n c u r r e n c y o n t h e s a l e s c o m p a r i s o n , t h e g r o w t h i n t h e s e m a r k e t s w a s 1 6</text><text x="50 0 55 0 59.438 0 62.769 0 67.207 0 71.646 0 76.646 0 79.424 0 84.333 0 90.352 0 95.352 0 102.29 0 106.182 0 111.182 0 116.182 0 120.073 0 122.852 0 127.29 0 132.29 0 135.068 0 137.847 0 142.285 0 147.563 0 150.342 0 155.342 0 159.78 0 163.11 0 167.549 0 171.987 0 175.879 0 182.817 0 185.596 0 193.096 0 195.874 0 200.874 0 205.313 0 209.751 0 215.029 0 219.468 0 224.468 0 227.798 0 231.128 0 235.566 0 240.566 0 245.005 0 252.505 0 256.396 0 260.835 0 263.613 0 268.052 0 274.443 0 277.222 0 284.722 0 287.5 0 292.5 0 299.438 0 306.108 0 311.108 0 318.887 0 323.887 0 328.325 0 333.325 0 338.325 0 340.127 0 346.519 0 350.957 0 358.735 0 363.174 0 366.414 0 371.323 0 374.102 0 379.102 0 386.602 0 394.38 0 398.818 0 402.148 0 407.148 0 411.587 0 414.365 0 420.757 0 427.979 0 432.417 0 438.809 0 443.809 0 447.139 0 449.917 0 457.695 0 462.134 0 465.464 0 468.242 0 471.021 0 478.521 0 481.299 0 488.799 0 495.469 0 498.799 0 503.237 0 507.676 0 510.454 0 513.232 0 518.232 0 523.794 0 528.794 0 531.572 0 534.351 0 538.789" y="139.772" style="fill:#000;font:normal normal 10.0px 'WF_Times New Roman'">p e r c e n t . T h e s u b s t a n t i a l i n c r e a s e i n l o c a l c u r r e n c y s a l e s i n t h e C o m p a n y ' s e m e r g i n g m a r k e t s w a s p r i m a r i l y i n B r a z i l , F u l l e r</text><text x="50 0 58.892 0 63.33 0 68.33 0 71.108 0 75.547 0 80.547 0 85.547 0 88.877 0 93.877 0 98.877 0 101.655 0 106.094 0 111.094 0 114.424 0 119.424 0 124.424 0 129.424 0 134.424 0 138.862 0 142.754 0 145.532 0 149.971 0 154.971 0 163.862 0 168.301 0 171.079 0 175.518 0 180.518 0 184.409 0 187.188 0 191.626 0 194.126 0 196.904 0 202.466 0 205.244 0 210.244 0 215.244 0 219.683 0 224.683 0 229.683 0 233.013 0 237.451 0 242.451 0 245.229 0 250.229 0 257.168 0 262.729 0 267.729 0 270.508 0 273.286 0 276.064 0 281.064 0 286.064 0 288.843 0 293.843 0 298.281 0 302.173 0 307.083 0 312.925 0 317.749 0 321.079 0 326.079 0 330.518 0 335.193 0 339.868 0 344.307 0 349.307 0 356.716 0 363.293 0 367.178 0 372.178 0 376.616 0 381.055 0 386.055 0 390.493 0 393.271 0 397.71 0 402.62 0 408.638 0 413.638 0 420.576 0 425.015 0 430.015 0 433.345 0 440.283 0 445.283 0 450.283 0 454.175 0 456.953 0 461.953 0 466.392 0 470.283 0 474.175 0 478.613 0 485.005 0 487.783 0 495.283 0 499.722 0 502.5 0 507.778 0 512.778 0 518.608 0 521.387 0 526.387 0 530.825 0 534.717 0 541.655 0 546.655 0 551.655 0 554.434 0 557.212" y="151.772" style="fill:#000;font:normal normal 10.0px 'WF_Times New Roman'">M e x i c o , I n d i a , I n d o n e s i a , M a l a y s i a , / S i n g a p o r e , t h e P h i l i p p i n e s , T u r k e y , a n d V e n e z u e l a . T h e c o r e b u s i n e s s e s i n a l l o f t h e s e u n i t s</text><text x="50 0 55 0 59.438 0 62.769 0 66.099 0 71.099 0 74.429 0 82.207 0 86.646 0 94.146 0 101.367 0 105.806 0 108.584 0 113.862 0 116.641 0 124.141 0 131.919 0 136.919 0 140.811 0 146.089 0 150.527 0 154.966 0 158.857 0 163.296 0 169.688 0 172.466 0 177.466 0 180.796 0 185.796 0 190.796 0 195.796 0 203.296 0 206.074 0 211.074 0 215.513 0 218.843 0 223.281 0 227.72 0 231.611 0 236.05 0 242.441 0 245.22 0 252.72 0 255.498 0 260.498 0 267.437 0 270.215 0 275.215 0 277.993 0 282.432 0 287.71 0 292.148 0 297.148 0 304.648 0 309.087 0 313.525 0 316.304 0 319.082 0 324.082 0 331.021 0 334.912 0 339.351 0 342.129 0 346.567 0 352.959 0 356.289 0 361.289 0 364.619 0 369.058 0 373.496 0 377.388 0 382.388 0 386.826 0 389.604 0 394.604 0 399.604 0 407.104 0 414.326 0 417.104 0 419.883 0 427.383 0 431.821 0 436.821 0 441.821 0 444.6 0 447.378 0 452.378 0 457.378 0 461.816 0 469.316 0 472.095 0 479.873 0 484.873 0 487.651 0 492.09 0 499.868 0 504.307 0 509.307 0 512.085 0 516.523 0 519.302 0 522.08 0 527.08 0 534.58 0 539.58 0 545.41 0 548.188 0 553.188" y="163.772" style="fill:#000;font:normal normal 10.0px 'WF_Times New Roman'">p e r f o r m e d w e l l i n m o s t c a s e s t h r o u g h i n c r e a s e s i n t h e t o t a l a n d a c t i v e s a l e s f o r c e s , a l o n g w i t h c o n t i n u e d i m p l e m e n t a t i o n o f t h e</text><text x="50 0 56.67 0 61.67 0 69.448 0 74.448 0 78.887 0 83.887 0 88.887 0 90.688 0 97.08 0 102.08 0 104.858 0 108.188 0 112.627 0 117.065 0 122.344 0 126.235 0 130.674 0 133.452 0 136.23 0 139.009 0 144.009 0 151.509 0 155.4 0 158.179 0 161.509 0 165.947 0 168.726 0 173.164 0 178.164 0 180.942 0 185.381 0 189.272 0 194.182 0 200.2 0 205.2 0 209.639 0 212.969 0 219.907 0 227.129 0 231.567 0 237.959 0 244.897 0 249.897 0 254.336 0 257.666 0 260.444 0 263.223 0 267.661 0 272.939 0 277.939 0 281.179 0 284.419 0 288.311 0 292.749 0 298.027 0 301.357 0 304.688 0 309.688 0 319.966 0 322.744 0 327.183 0 331.074 0 337.466 0 342.466 0 347.466 0 351.357 0 354.136 0 359.136 0 363.574 0 367.466 0 371.357 0 374.688 0 377.466 0 382.466 0 385.796 0 390.796 0 395.796 0 399.688 0 402.466 0 407.466 0 411.904 0 415.796 0 422.188 0 426.079 0 430.518 0 433.296 0 437.734 0 444.126 0 446.904 0 454.314 0 460.156 0 464.98 0 469.98 0 474.98 0 479.419 0 482.749 0 489.971 0 494.409 0 497.739 0 504.678 0 513.569 0 518.008 0 523.008 0 525.786 0 530.225 0 537.725 0 542.163 0 547.163" y="175.772" style="fill:#000;font:normal normal 10.0px 'WF_Times New Roman'">C o m p a n y ' s d i r e c t s e l l i n g s t r a t e g i e s . T h e r e w a s a p a r t i a l o f f s e t f r o m l e s s b u s i n e s s - t o - b u s i n e s s s a l e s i n T u p p e r w a r e M e x i c o a n d</text><text x="50 0 56.67 0 61.67 0 64.448 0 69.448 0 73.887 0 81.387 0 88.057 0 93.057 0 96.948 0 100.84 0 103.618 0 110.557 0 117.778 0 122.217 0 128.608 0 131.387 0 136.387 0 143.325 0 148.325 0 153.325 0 156.104 0 163.604 0 168.604 0 173.604 0 176.382 0 181.66 0 188.882 0 193.882 0 196.66 0 201.099 0 208.599 0 213.599 0 218.037 0 225.537 0 232.476 0 236.367 0 239.146 0 244.146 0 249.146 0 251.924 0 255.254 0 258.032 0 262.471 0 266.909 0 271.909 0 277.188 0 282.188 0 286.626 0 291.064 0 293.843 0 296.621 0 301.621 0 308.56 0 312.998 0 317.998 0 325.776 0 330.776 0 335.215 0 338.545 0 342.983 0 350.483 0 357.705 0 360.483 0 363.262 0 370.762 0 373.54 0 377.979 0 381.87 0 387.148 0 392.148 0 396.587 0 401.025 0 404.155 0 408.955 0 416.733 0 421.172 0 423.95 0 428.95 0 431.729 0 439.229 0 444.229 0 449.229 0 456.167 0 458.945 0 466.445 0 473.384 0 477.275 0 485.054 0 489.492 0 492.271 0 495.049 0 499.487 0 505.317 0 509.756 0 514.756 0 522.256 0 525.034 0 529.473 0 533.364" y="187.772" style="fill:#000;font:normal normal 10.0px 'WF_Times New Roman'">C h i n a . R u s s i a w a s t h e o n l y u n i t w h i c h h a d a s i g n i f i c a n t d e c l i n e c o m p a r e d w i t h l a s t y e a r , m a i n l y d u e t o a s m a l l e r a n d l e s s</text><text x="50 0 54.438 0 58.877 0 61.655 0 64.434 0 69.434 0 76.372 0 80.264 0 84.702 0 87.48 0 91.919 0 98.311 0 101.641 0 106.641 0 109.971 0 114.409 0 118.848 0 123.757 0 129.426 0 134.077 0 136.855 0 141.294 0 146.572 0 150.464 0 154.902 0 157.681 0 162.119 0 168.511 0 171.841 0 176.841 0 182.671 0 185.449 0 190.449 0 197.388 0 201.826 0 205.718 0 208.496 0 212.935 0 217.935 0 220.713 0 223.491 0 227.383 0 232.383 0 236.821 0 244.321 0 252.1 0 256.538 0 259.868 0 264.868 0 269.307 0 272.085 0 278.477 0 281.255 0 286.255 0 290.693 0 294.023 0 298.462 0 302.9 0 306.792 0 311.23 0 318.73 0 323.73 0 328.73 0 333.73 0 336.23 0 343.73 0 351.509 0 354.287 0 357.065 0 359.844 0 362.622 0 367.622 0 372.622 0 377.622 0 382.622 0 388.452 0 395.952 0 400.952 0 405.391 0 408.721 0 413.159 0 417.598 0 422.598 0 425.376 0 430.376 0 433.154 0 440.654 0 443.433 0 448.433 0 455.371 0 458.701 0 461.479 0 464.81 0 468.701 0 473.979 0 478.979 0 483.979 0 488.418 0 491.748 0 494.526 0 498.965 0 504.795 0 509.795 0 515.625 0 520.625 0 525.625 0 530.439 0 535.254" y="199.772" style="fill:#000;font:normal normal 10.0px 'WF_Times New Roman'">a c t i v e s a l e s f o r c e . T o t a l s a l e s f o r t h e e s t a b l i s h e d m a r k e t s i n c r e a s e d $ 1 6 . 3 m i l l i o n , o r 6 p e r c e n t , i n t h e f i r s t q u a r t e r o f 2 0 1 1 ,</text><text x="50 0 54.438 0 59.438 0 67.217 0 72.217 0 76.655 0 79.985 0 84.424 0 91.924 0 99.146 0 101.924 0 104.702 0 112.202 0 114.98 0 119.98 0 126.919 0 130.811 0 135.249 0 143.027 0 149.966 0 154.966 0 159.404 0 162.734 0 165.513 0 170.513 0 178.013 0 183.013 0 188.843 0 193.843 0 198.843 0 203.843 0 208.843 0 213.843 0 221.064 0 226.064 0 228.843 0 233.281 0 240.781 0 243.56 0 248.56 0 252.998 0 255.776 0 260.776 0 265.776 0 270.215 0 277.715 0 284.653 0 289.653 0 294.653 0 298.545 0 301.323 0 304.102 0 306.88 0 311.88 0 318.818 0 323.818 0 328.818 0 331.318 0 338.818 0 346.597 0 349.375 0 352.153 0 354.932 0 357.71 0 362.71 0 370.21 0 372.988 0 380.767 0 385.767 0 390.205 0 394.644 0 399.922 0 403.252 0 406.582 0 411.582 0 421.86 0 425.19 0 430.19 0 433.521 0 437.959 0 440.737 0 445.737 0 453.237 0 457.676 0 462.676 0 466.006 0 469.336 0 473.774 0 478.774 0 483.213 0 490.713 0 495.151 0 500.151 0 504.59 0 509.59 0 514.028 0 519.028 0 524.028 0 530.967 0 534.297 0 538.735 0 541.514" y="211.772" style="fill:#000;font:normal normal 10.0px 'WF_Times New Roman'">c o m p a r e d w i t h t h e s a m e p e r i o d o f 2 0 1 0 , w h i c h i n c l u d e d a p o s i t i v e $ 6 . 0 m i l l i o n i m p a c t f r o m f o r e i g n c u r r e n c y e x c h a n g e r a t e</text><text x="50 0 54.438 0 59.438 0 63.877 0 68.877 0 73.877 0 78.315 0 82.207 0 86.931 0 93.877 0 101.655 0 106.655 0 111.655 0 119.155 0 121.934 0 126.934 0 131.372 0 135.264 0 142.202 0 147.202 0 152.202 0 154.98 0 157.759 0 161.65 0 166.65 0 169.429 0 174.429 0 178.867 0 182.197 0 189.136 0 196.357 0 200.796 0 204.126 0 211.064 0 213.843 0 218.843 0 223.281 0 226.611 0 231.05 0 235.488 0 239.38 0 243.818 0 250.21 0 252.988 0 260.488 0 263.267 0 268.267 0 272.705 0 277.144 0 282.422 0 286.86 0 291.86 0 295.19 0 298.521 0 302.959 0 307.959 0 312.397 0 319.897 0 323.789 0 328.228 0 331.006 0 335.444 0 341.836 0 344.614 0 352.114 0 357.676 0 361.006 0 365.444 0 370.444 0 374.883 0 381.821 0 389.043 0 391.821 0 394.6 0 402.1 0 409.878 0 414.878 0 418.208 0 425.146 0 430.146 0 434.585 0 437.915 0 440.693 0 443.472 0 447.91 0 454.302 0 459.302 0 463.74 0 466.519 0 474.019 0 479.019 0 486.519 0 493.457 0 496.235 0 500.674 0 503.914 0 508.823 0 513.262 0 519.092 0 522.983 0 527.422 0 530.2 0 534.639" y="223.772" style="fill:#000;font:normal normal 10.0px 'WF_Times New Roman'">c h a n g e s . A m o n g t h e s e u n i t s , t h e r e w e r e i n c r e a s e s i n l o c a l c u r r e n c y s a l e s i n F r a n c e w i t h m o r e p a r t i e s h e l d b y a l a r g e r s a l e s</text><text x="50 0 53.33 0 58.33 0 61.66 0 66.099 0 70.537 0 75.537 0 79.976 0 84.976 0 92.385 0 98.228 0 103.052 0 108.052 0 113.052 0 117.49 0 120.82 0 128.042 0 132.48 0 135.811 0 142.749 0 149.971 0 154.971 0 157.749 0 160.527 0 164.966 0 172.466 0 178.027 0 180.806 0 185.244 0 188.022 0 192.461 0 198.853 0 203.291 0 208.291 0 215.791 0 222.461 0 226.899 0 231.899 0 236.338 0 241.338 0 245.776 0 250.776 0 254.106 0 258.545 0 261.875 0 264.653 0 269.092 0 273.53 0 276.309 0 279.087 0 284.087 0 291.587 0 298.525 0 301.855 0 306.855 0 311.294 0 316.294 0 322.686 0 327.686 0 335.186 0 338.516 0 342.954 0 347.393 0 350.723 0 355.723 0 358.501 0 361.279 0 364.058 0 369.058 0 374.058 0 379.058 0 382.949 0 387.388 0 390.166 0 394.604 0 400.996 0 404.326 0 409.326 0 412.656 0 417.095 0 424.033 0 429.033 0 433.472 0 438.472 0 442.91 0 445.688 0 450.688 0 455.688 0 463.467 0 467.905 0 472.905 0 478.184 0 482.622 0 487.622 0 495.122 0 497.9 0 502.9 0 509.839 0 514.839 0 519.277 0 524.277 0 528.716 0 532.046 0 534.824 0 540.103 0 545.103 0 550.933" y="235.772" style="fill:#000;font:normal normal 10.0px 'WF_Times New Roman'">f o r c e , a n d T u p p e r w a r e U n i t e d S t a t e s a n d C a n a d a , r e f l e c t i n g a f o c u s o n r e c r u i t i n g , s a l e s f o r c e d e v e l o p m e n t a n d t h e b e n e f i t o f a</text><text x="50 0 55 0 58.33 0 63.33 0 71.108 0 76.108 0 78.887 0 81.665 0 86.665 0 91.665 0 96.104 0 101.382 0 105.273 0 110.273 0 113.052 0 116.382 0 121.66 0 126.66 0 131.66 0 138.599 0 141.377 0 148.877 0 151.655 0 156.655 0 163.594 0 168.032 0 173.032 0 175.811 0 179.141 0 186.079 0 193.301 0 197.739 0 202.178 0 209.678 0 212.456 0 219.956 0 222.734 0 227.734 0 234.673 0 238.003 0 240.781 0 244.673 0 249.111 0 253.55 0 258.828 0 263.828 0 268.267 0 271.597 0 274.375 0 279.375 0 284.375" y="247.772" style="fill:#000;font:normal normal 10.0px 'WF_Times New Roman'">p r o m o t i o n a l s h i f t d u e t o t h e e x t r a w e e k i n t h e f i s c a l p e r i o d .</text><text x="50 0 53.33 0 60.83 0 63.608 0 68.608 0 75.547 0 78.877 0 81.655 0 84.985 0 88.877 0 94.155 0 99.155 0 104.155 0 108.594 0 111.924 0 114.702 0 119.141 0 124.971 0 129.971 0 135.801 0 140.801 0 145.801 0 150.615 0 155.43 0 160.43 0 163.208 0 168.208 0 175.146 0 181.816 0 186.816 0 194.595 0 199.595 0 204.033 0 209.033 0 214.033 0 215.835 0 222.227 0 226.118 0 230.557 0 233.335 0 237.773 0 244.165 0 251.387 0 255.825 0 259.155 0 266.094 0 268.872 0 273.872 0 281.094 0 285.532 0 291.362 0 296.362 0 303.862 0 308.862 0 316.362 0 324.141 0 326.919 0 329.697 0 332.476 0 335.254 0 340.254 0 347.754 0 350.532 0 358.032 0 360.811 0 365.811 0 370.249 0 374.688 0 379.966 0 384.404 0 389.404 0 392.734 0 396.064 0 400.503 0 405.503 0 409.941 0 417.441 0 420.771 0 424.102 0 429.102 0 439.38 0 444.38 0 449.38 0 453.271 0 456.05 0 461.05 0 465.488 0 469.38 0 473.271 0 476.602 0 479.38 0 484.38 0 487.71 0 492.71 0 497.71 0 501.602 0 504.38 0 509.38 0 513.818 0 517.71 0 524.102 0 527.993 0 532.432 0 535.21 0 539.648 0 543.54" y="265.772" style="fill:#000;font:normal normal 10.0px 'WF_Times New Roman'">I n t h e f i r s t q u a r t e r o f 2 0 1 1 , t h e C o m p a n y ' s s a l e s w e r e l o w e r b y $ 7 m i l l i o n i n l o c a l c u r r e n c y f r o m b u s i n e s s - t o - b u s i n e s s s a l e s ,</text><text x="50 0 55 0 58.33 0 61.108 0 68.887 0 73.325 0 76.655 0 79.434 0 82.212 0 89.712 0 92.49 0 99.9 0 105.742 0 110.566 0 115.566 0 120.566 0 125.005 0 128.335 0 135.557 0 139.995 0 143.325 0 150.264 0 159.155 0 163.594 0 168.594 0 171.372 0 175.811 0 183.311 0 187.749 0 192.749 0 200.249 0 206.919 0 211.919 0 214.697 0 219.697 0 224.136 0 229.045 0 238.394 0 243.394 0 246.172 0 248.95 0 255.889 0 258.667 0 263.667 0 270.605 0 277.275 0 282.275 0 290.054 0 295.054 0 299.492 0 304.492 0 311.992 0 316.431 0 320.869 0 323.647 0 326.426 0 331.426 0 335.864 0 338.643 0 346.143 0 351.143 0 356.143 0 359.473 0 363.364 0 368.364 0 372.803 0 379.194 0 384.194 0 389.194 0 393.086 0 395.864 0 400.864 0 405.303 0 409.194 0 413.086 0 416.416 0 419.194 0 424.194 0 427.524 0 432.524 0 437.524 0 441.416 0 444.194 0 449.194 0 453.633 0 457.524 0 463.916 0 468.916 0 473.916 0 478.916 0 483.916 0 487.246 0 490.024 0 495.024 0 500.024 0 502.803 0 505.581 0 508.359 0 512.798 0 516.689 0 521.689 0 525.581 0 530.02 0 532.798 0 537.236" y="277.772" style="fill:#000;font:normal normal 10.0px 'WF_Times New Roman'">p r i m a r i l y i n T u p p e r w a r e M e x i c o a n d C h i n a . W h i l e t h e C o m p a n y a c t i v e l y p u r s u e s b u s i n e s s - t o - b u s i n e s s o p p o r t u n i t i e s , s a l e s</text><text x="50 0 53.33 0 56.66 0 61.66 0 71.938 0 74.717 0 79.717 0 82.495 0 88.887 0 93.325 0 98.325 0 102.764 0 107.764 0 112.764 0 117.202 0 122.48 0 126.919 0 130.249 0 137.188 0 142.188 0 146.626 0 150.518 0 154.956 0 162.456 0 167.456 0 174.956 0 178.286 0 182.725 0 187.163 0 191.602 0 196.602 0 199.38 0 204.38 0 211.88 0 216.318 0 221.318 0 224.648 0 229.087 0 233.525 0 241.304 0 245.742 0 250.742 0 253.521 0 259.912 0 267.134 0 269.912 0 272.69 0 280.19 0 285.19 0 290.19 0 294.082 0 296.86 0 301.86 0 306.299 0 310.19 0 316.582 0 321.582 0 326.021 0 329.351 0 332.129 0 337.129 0 341.567 0 344.897 0 351.289 0 355.728 0 360.728 0 368.228 0 371.006 0 376.006 0 380.444 0 383.223 0 389.053 0 394.053 0 397.383 0 402.383 0 407.383 0 412.383 0 416.821 0 422.1 0 427.1 0 431.538 0 435.977 0 440.977 0 444.868 0 449.868 0 454.307 0 457.085 0 462.085 0 467.085 0 474.585 0 481.807 0 484.585 0 487.363 0 494.863 0 499.302 0 504.302 0 509.302 0 513.193 0 515.972 0 520.972 0 525.41 0 528.74 0 533.179 0 535.957 0 538.735 0 543.735 0 551.235 0 556.235" y="289.772" style="fill:#000;font:normal normal 10.0px 'WF_Times New Roman'">f r o m t h i s c h a n n e l a r e b a s e d o n r e a c h i n g a g r e e m e n t s w i t h b u s i n e s s p a r t n e r s a n d t h e i r p r o d u c t n e e d s , a l o n g w i t h c o n s i d e r a t i o n o f</text><text x="50 0 55 0 60 0 69.722 0 72.5 0 77.5 0 84.438 0 88.877 0 92.207 0 95.537 0 99.976 0 104.976 0 109.976 0 114.414 0 122.192 0 126.631 0 131.631 0 134.409 0 140.801 0 148.022 0 150.801 0 153.579 0 158.857 0 163.857 0 170.796 0 173.574 0 178.574 0 181.353 0 185.791 0 190.791 0 194.121 0 198.56 0 201.338 0 205.776 0 213.276 0 220.498 0 223.276 0 226.055 0 233.555 0 236.333 0 241.333 0 248.271 0 254.941 0 259.941 0 267.72 0 272.72 0 277.158 0 282.158 0 287.158 0 288.96 0 295.352 0 300.352 0 303.682 0 306.46 0 314.238 0 318.677 0 322.007 0 329.507 0 333.398 0 337.837 0 340.615 0 345.054 0 351.445 0 355.884 0 360.884 0 365.322 0 370.322 0 375.322 0 379.761 0 382.539 0 387.539 0 394.209 0 399.209 0 404.209 0 408.101 0 412.539 0 417.539 0 422.539 0 426.978 0 431.978 0 434.756 0 437.534 0 442.209 0 446.885 0 451.323 0 455.762 0 458.54 0 461.318 0 466.318 0 469.097 0 471.875 0 479.375 0 482.153 0 489.653 0 494.653 0 499.653 0 506.592 0 511.592 0 516.03 0 519.36 0 522.139 0 527.139 0 534.639 0 537.417 0 543.809 0 548.809 0 553.809" y="301.772" style="fill:#000;font:normal normal 10.0px 'WF_Times New Roman'">h o w t h e a r r a n g e m e n t s w i l l b e i n t e g r a t e d w i t h t h e C o m p a n y ' s p r i m a r y s a l e s c h a n n e l . C o n s e q u e n t l y , a c t i v i t y i n o n e p e r i o d i s n o t</text><text x="50 0 55 0 59.438 0 63.877 0 68.315 0 72.207 0 76.099 0 80.537 0 83.867 0 86.646 0 89.424 0 96.924 0 99.702 0 104.702 0 109.702 0 112.48 0 116.919 0 121.357 0 124.136 0 126.914 0 131.914 0 138.853 0 143.853 0 149.683 0 153.013 0 158.013 0 160.791 0 165.791 0 169.121 0 176.06 0 178.838 0 182.168 0 186.606 0 191.606 0 196.606 0 200.498" y="313.772" style="fill:#000;font:normal normal 10.0px 'WF_Times New Roman'">n e c e s s a r i l y i n d i c a t i v e o f f u t u r e t r e n d s .</text><text x="50 0 59.17 0 66.948 0 71.948 0 75.278 0 82.217 0 87.217 0 91.655 0 94.434 0 98.872 0 101.65 0 104.429 0 108.867 0 116.367 0 121.367 0 124.146 0 128.037 0 132.476 0 137.476 0 141.367 0 145.259 0 148.037 0 153.037 0 160.537 0 165.537 0 171.367 0 174.146 0 179.146 0 186.084 0 189.976 0 194.414 0 197.192 0 201.631 0 208.022 0 211.353 0 215.791 0 219.683 0 224.683 0 227.461 0 230.239 0 236.631 0 239.961 0 244.961 0 250.791 0 253.569 0 258.569 0 265.508 0 272.178 0 277.178 0 284.956 0 289.956 0 294.395 0 299.395 0 304.395 0 306.196 0 312.588 0 315.918 0 320.356 0 325.356 0 330.356 0 333.687 0 336.465 0 339.243 0 344.243 0 351.743 0 355.635 0 360.073 0 365.073 0 372.852 0 377.29 0 382.29 0 385.068 0 391.46 0 394.238 0 400.63 0 403.408 0 408.408 0 412.847 0 415.625 0 420.625 0 425.625 0 430.063 0 437.563 0 440.342 0 447.842 0 450.62 0 455.62 0 462.559 0 466.45 0 470.889 0 475.889 0 483.667 0 488.105 0 493.105 0 498.384 0 501.714 0 506.152 0 510.044 0 515.044 0 517.822 0 520.601 0 526.992 0 530.884 0 535.322 0 539.761 0 542.539 0 545.317 0 550.317" y="331.772" style="fill:#000;font:normal normal 10.0px 'WF_Times New Roman'">A m o r e d e t a i l e d d i s c u s s i o n o f t h e s a l e s r e s u l t s f o r t h e C o m p a n y ' s r e p o r t i n g s e g m e n t s i s i n c l u d e d i n t h e s e g m e n t r e s u l t s s e c t i o n</text><text x="50 0 53.33 0 58.33 0 61.108 0 63.887 0 68.887 0 76.108 0 78.887 0 83.887 0 88.887" y="343.772" style="fill:#000;font:normal normal 10.0px 'WF_Times New Roman'">f o l l o w i n g .</text><text x="50 0 57.222 0 63.613 0 68.613 0 71.392 0 75.283 0 79.722 0 84.722 0 88.613 0 92.505 0 96.943 0 104.443 0 107.222 0 114.722 0 121.943 0 126.943 0 129.722 0 136.66 0 144.16 0 146.938 0 154.438 0 157.217 0 162.217 0 169.155 0 175.825 0 180.825 0 185.825 0 189.717 0 194.717 0 197.495 0 200.273 0 205.273 0 209.712 0 212.49 0 216.929 0 224.429 0 229.99 0 232.769 0 237.769 0 242.207 0 247.207 0 251.646 0 254.424 0 258.862 0 264.141 0 269.702 0 272.48 0 276.919 0 279.697 0 284.136 0 291.914 0 296.353 0 301.353 0 304.131 0 308.022 0 313.022 0 315.801 0 320.801 0 327.739 0 334.409 0 339.409 0 347.188 0 352.188 0 356.626 0 361.626 0 369.126 0 371.904 0 376.904 0 381.343 0 384.121 0 389.121 0 394.121 0 398.56 0 404.951 0 409.951 0 413.281 0 418.281 0 426.06 0 431.06 0 433.838 0 436.616 0 441.616 0 446.616 0 451.055 0 456.333 0 460.771 0 465.771 0 469.663 0 472.441 0 478.833 0 481.611 0 489.111 0 494.111 0 498.55 0 501.328 0 504.106 0 509.106 0 513.545 0 516.875 0 521.55 0 526.226 0 530.117 0 534.556 0 537.334 0 541.772" y="361.772" style="fill:#000;font:normal normal 10.0px 'WF_Times New Roman'">A s d i s c u s s e d i n N o t e 3 t o t h e C o n s o l i d a t e d F i n a n c i a l S t a t e m e n t s , t h e C o m p a n y i n c l u d e s p r o m o t i o n a l c o s t s i n d e l i v e r y , s a l e s</text><text x="50 0 54.438 0 59.438 0 66.938 0 71.377 0 76.377 0 84.155 0 86.934 0 91.934 0 94.712 0 98.604 0 101.382 0 104.712 0 109.15 0 111.929 0 114.707 0 119.707 0 126.646 0 131.084 0 136.084 0 141.084 0 145.522 0 150.522 0 154.414 0 158.853 0 163.577 0 170.522 0 176.914 0 183.853 0 187.183 0 191.621 0 195.513 0 200.513 0 203.291 0 206.069 0 211.069 0 213.848 0 218.848 0 225.786 0 232.456 0 237.456 0 245.234 0 250.234 0 254.673 0 259.673 0 264.673 0 266.475 0 272.866 0 277.866 0 282.305 0 287.583 0 291.475 0 295.913 0 298.691 0 303.13 0 309.521 0 317.3 0 321.738 0 329.238 0 334.238 0 339.238 0 344.517 0 349.517 0 356.455 0 360.894 0 365.894 0 373.672 0 378.672 0 383.11 0 386.44 0 390.879 0 395.879 0 398.657 0 405.596 0 412.817 0 415.596 0 418.374 0 425.874 0 430.874 0 433.652 0 438.652 0 443.091 0 448.921 0 453.359 0 458.359 0 466.138 0 471.138 0 475.576 0 480.576 0 483.354 0 487.793 0 494.185 0 496.963 0 501.963 0 506.401 0 511.68 0 514.458 0 517.788 0 522.227 0 526.665 0 531.943 0 534.722 0 539.722 0 544.16 0 548.052" y="373.772" style="fill:#000;font:normal normal 10.0px 'WF_Times New Roman'">a n d a d m i n i s t r a t i v e e x p e n s e . A s a r e s u l t , t h e C o m p a n y ' s n e t s a l e s m a y n o t b e c o m p a r a b l e w i t h o t h e r c o m p a n i e s t h a t t r e a t t h e s e</text><text x="50 0 54.438 0 59.438 0 63.33 0 66.108 0 72.5 0 76.938 0 83.33 0 90.269 0 93.599 0 98.037 0 103.037 0 108.037 0 112.476 0 115.254 0 118.032 0 123.032 0 130.532 0 135.532 0 141.362 0 144.692 0 149.131 0 154.131 0 158.569 0 163.569 0 168.569 0 173.008" y="385.772" style="fill:#000;font:normal normal 10.0px 'WF_Times New Roman'">c o s t s a s a r e d u c t i o n o f r e v e n u e .</text><text x="65.25 0 71.92 0 76.358 0 79.688 0 84.127 0 89.688 0 94.688 0 97.467 0 103.028 0 107.467 0 111.905 0 115.797 0 118.575 0 124.137 0 131.637 0 136.637 0 142.198 0 149.698 0 153.59 0 161.368 0 166.368 0 171.368 0 174.146 0 178.038 0 185.816 0 190.255 0 195.816 0 201.095 0 207.765 0 212.765 0 217.765 0 222.203 0 227.765 0 231.656 0 236.095" y="403.772" style="fill:#000;font:italic bold 10.0px 'WF_Times New Roman'">R e - e n g i n e e r i n g a n d I m p a i r m e n t E x p e n s e s</text><text x="50 0 56.67 0 61.108 0 64.438 0 68.877 0 74.707 0 77.485 0 84.985 0 92.207 0 97.207 0 99.985 0 106.924 0 114.424 0 117.202 0 124.702 0 127.48 0 132.48 0 139.419 0 146.089 0 151.089 0 156.089 0 159.98 0 164.98 0 167.759 0 170.537 0 175.537 0 179.976 0 182.754 0 187.192 0 194.692 0 200.254 0 203.032 0 208.032 0 212.471 0 217.471 0 221.909 0 224.688 0 229.126 0 234.404 0 239.966 0 242.744 0 247.183 0 249.961 0 254.399 0 262.178 0 266.616 0 271.616 0 274.395 0 280.786 0 284.116 0 289.116 0 294.946 0 301.885 0 306.885 0 309.663 0 313.555 0 317.993 0 322.993 0 326.885 0 330.776 0 333.555 0 338.555 0 346.055 0 351.055 0 356.885 0 360.215 0 364.653 0 367.983 0 372.422 0 377.422 0 382.422 0 385.2 0 390.2 0 394.639 0 399.077 0 402.407 0 405.186 0 410.186 0 417.686 0 422.124 0 426.563 0 429.341 0 432.119 0 437.119 0 439.897 0 442.676 0 445.454 0 449.893 0 456.284 0 460.723 0 465.723 0 473.223 0 476.553 0 480.991 0 483.77 0 488.208 0 490.986 0 495.425 0 502.925 0 507.363 0 511.802 0 516.24 0 519.57 0 524.57 0 529.009 0 531.787 0 535.679" y="421.772" style="fill:#000;font:normal normal 10.0px 'WF_Times New Roman'">R e f e r t o N o t e 7 t o t h e C o n s o l i d a t e d F i n a n c i a l S t a t e m e n t s f o r a d i s c u s s i o n o f r e - e n g i n e e r i n g a c t i v i t i e s a n d r e l a t e d a c c r u a l s .</text><text x="50 0 56.108 0 61.108 0 68.047 0 74.717 0 79.717 0 87.495 0 92.495 0 96.934 0 101.934 0 109.434 0 112.764 0 117.202 0 121.641 0 126.641 0 129.971 0 134.971 0 139.409 0 146.909" y="439.772" style="fill:#000;font:normal normal 10.0px 'WF_Times New Roman'">T h e C o m p a n y r e c o r d e d $</text><text x="151.909 0 156.909 0 159.409 0 164.409 0 169.409 0 174.409 0 176.909" y="439.772" style="fill:#F00;font:normal normal 10.0px 'WF_Times New Roman'">1 , 4 0 0 . 0</text><text x="184.409 0 192.188 0 194.966 0 197.744 0 200.522 0 203.301 0 208.301 0 215.801 0 218.579 0 226.079 0 229.409 0 233.848 0 237.178 0 241.616 0 246.616 0 251.616 0 254.395 0 259.395 0 263.833 0 268.271 0 271.602 0 274.38 0 279.38 0 286.88 0 291.318 0 296.318 0 303.818 0 306.597 0 314.375 0 319.375 0 323.813 0 326.592 0 329.922 0 337.7 0 342.139 0 347.139 0 352.417 0 356.855 0 361.855 0 366.294 0 369.534 0 374.443 0 378.882 0 385.273 0 390.273 0 395.273 0 398.604 0 401.382 0 406.382 0 413.882 0 416.66 0 421.66 0 428.599 0 431.929 0 434.707 0 438.037 0 441.929 0 447.207 0 452.207 0 457.207 0 461.646 0 464.976 0 467.754 0 472.192 0 478.022 0 483.022 0 488.853 0 493.853 0 498.853 0 503.667 0 508.481 0 513.481 0 518.481 0 521.812 0 524.59 0 532.368 0 536.807 0 540.137 0 542.915 0 545.693" y="439.772" style="fill:#000;font:normal normal 10.0px 'WF_Times New Roman'">m i l l i o n i n r e - e n g i n e e r i n g a n d i m p a i r m e n t c h a r g e s d u r i n g t h e f i r s t q u a r t e r o f 2 0 1 1 , p r i m a r i l y</text><text x="50 0 53.33 0 57.769 0 60.547 0 64.985 0 67.764 0 72.202 0 79.702 0 82.48 0 89.98 0 93.872 0 98.311 0 103.311 0 107.749 0 111.079 0 115.518 0 120.518 0 124.956 0 131.895 0 136.333 0 141.333 0 145.225 0 148.003 0 154.395 0 157.173 0 162.173 0 166.611 0 171.611 0 174.941 0 178.271 0 182.71 0 190.21 0 192.988 0 200.488 0 203.818 0 208.257 0 213.257 0 218.257 0 222.695 0 229.634 0 234.634 0 239.072 0 243.511 0 251.011 0 255.449 0 260.449 0 265.449 0 270.449 0 275.728 0 278.506 0 286.006 0 288.784 0 293.784 0 300.723 0 307.393 0 312.393 0 320.171 0 325.171 0 329.609 0 334.609 0 339.609 0 341.411 0 347.527 0 354.473 0 357.712 0 362.622 0 367.061 0 372.061 0 374.839 0 377.617 0 382.617 0 387.056 0 391.78 0 398.726 0 403.726 0 407.617 0 410.396 0 413.726 0 418.164 0 420.942 0 423.721 0 428.159 0 433.159 0 437.051 0 441.489 0 446.489 0 450.928 0 455.928 0 460.928 0 468.149 0 471.479 0 475.918 0 480.356 0 484.795 0 489.233 0 494.233 0 498.672 0 503.672 0 511.172 0 520.063 0 524.502 0 529.502 0 532.28 0 536.719" y="451.772" style="fill:#000;font:normal normal 10.0px 'WF_Times New Roman'">r e l a t e d t o s e v e r a n c e c o s t s i n c u r r e d t o r e d u c e h e a d c o u n t i n t h e C o m p a n y ' s A r g e n t i n a , A u s t r a l i a , J a p a n , G r e e c e , a n d M e x i c o</text><text x="50 0 55 0 60 0 64.438 0 67.769 0 72.207 0 74.985 0 77.764 0 82.764 0 87.764 0 94.155 0 101.934 0 106.372 0 109.15 0 114.15 0 116.929 0 124.429 0 129.429 0 134.429 0 141.367 0 144.146 0 151.646 0 154.424 0 161.924 0 164.702 0 172.48 0 177.48 0 180.259 0 184.697 0 192.476 0 196.914 0 201.914 0 204.692 0 207.471 0 212.471 0 219.971 0 224.409 0 229.409 0 233.848 0 238.848 0 243.848 0 248.286 0 254.678 0 257.456 0 264.956 0 267.734 0 272.734 0 279.673 0 284.673 0 289.673 0 293.564 0 296.343 0 301.343 0 305.781 0 309.673 0 313.564 0 317.866 0 325.645 0 330.083 0 335.083 0 339.521 0 344.521 0 348.96 0 356.738 0 361.177 0 366.177 0 371.455 0 375.347 0 378.125 0 381.455 0 386.455 0 390.894 0 393.672 0 398.672 0 402.002 0 406.44 0 410.332" y="463.772" style="fill:#000;font:normal normal 10.0px 'WF_Times New Roman'">o p e r a t i o n s m a i n l y d u e t o t o i m p l e m e n t i n g c h a n g e s i n t h e b u s i n e s s ' m a n a g e m e n t s t r u c t u r e s .</text><text x="50 0 56.108 0 61.108 0 68.047 0 74.717 0 79.717 0 87.495 0 92.495 0 96.934 0 101.934 0 109.434 0 112.764 0 117.202 0 121.641 0 126.641 0 129.971 0 134.971 0 139.409 0 146.909 0 151.909 0 156.909 0 159.409 0 166.909 0 174.688 0 177.466 0 180.244 0 183.022 0 185.801 0 190.801 0 198.301 0 201.079 0 208.579 0 211.909 0 216.348 0 219.678 0 224.116 0 229.116 0 234.116 0 236.895 0 241.895 0 246.333 0 250.771 0 254.102 0 256.88 0 261.88 0 269.38 0 273.818 0 278.818 0 286.318 0 289.097 0 296.875 0 301.875 0 306.313 0 309.092 0 312.422 0 320.2 0 324.639 0 329.639 0 334.917 0 339.355 0 344.355 0 348.794 0 352.034 0 356.943 0 361.382 0 367.773 0 372.773 0 377.773 0 381.104 0 383.882 0 388.882 0 396.382 0 399.16 0 404.16 0 411.099 0 414.429 0 417.207 0 420.537 0 424.429 0 429.707 0 434.707 0 439.707 0 444.146 0 447.476 0 450.254 0 454.692 0 460.522 0 465.522 0 471.353 0 476.353 0 481.353 0 486.353 0 491.353 0 496.353 0 501.353 0 504.683 0 507.461 0 515.239 0 519.678 0 523.008 0 525.786 0 528.564" y="481.772" style="fill:#000;font:normal normal 10.0px 'WF_Times New Roman'">T h e C o m p a n y r e c o r d e d $ 1 . 6 m i l l i o n i n r e - e n g i n e e r i n g a n d i m p a i r m e n t c h a r g e s d u r i n g t h e f i r s t q u a r t e r o f 2 0 1 0 , p r i m a r i l y</text><text x="50 0 53.33 0 57.769 0 60.547 0 64.985 0 67.764 0 72.202 0 79.702 0 82.48 0 89.98 0 93.872 0 98.311 0 103.311 0 107.749 0 111.079 0 115.518 0 120.518 0 124.956 0 131.895 0 136.333 0 141.333 0 145.225 0 148.003 0 154.395 0 157.173 0 162.173 0 166.611 0 171.611 0 174.941 0 178.271 0 182.71 0 190.21 0 192.988 0 200.488 0 203.267 0 206.045 0 212.161 0 219.106 0 222.346 0 227.256 0 231.694 0 236.694 0 239.473 0 242.251 0 247.251 0 251.689 0 256.689 0 263.359 0 267.798 0 272.236 0 277.236 0 280.015 0 282.793 0 289.463 0 294.463 0 299.463 0 302.241 0 305.571 0 310.571 0 313.35 0 318.35 0 325.571 0 328.901 0 333.34 0 337.778 0 342.217 0 349.155 0 353.594 0 358.594 0 366.094 0 374.985 0 379.424 0 384.424 0 387.202 0 391.641 0 399.141 0 404.141 0 409.141 0 413.579 0 416.909 0 421.348 0 424.126 0 426.904 0 431.904 0 436.904 0 440.796 0 445.796 0 450.234 0 453.013 0 456.904 0 464.404 0 472.183 0 476.621 0 479.399 0 484.399 0 487.178 0 494.678 0 499.678 0 504.678 0 511.616 0 514.395" y="493.772" style="fill:#000;font:normal normal 10.0px 'WF_Times New Roman'">r e l a t e d t o s e v e r a n c e c o s t s i n c u r r e d i n i t s A r g e n t i n a , B e a u t i C o n t r o l , G r e e c e a n d M e x i c o o p e r a t i o n s , a l s o m a i n l y d u e t o</text><text x="50 0 52.778 0 60.557 0 65.557 0 68.335 0 72.773 0 80.552 0 84.99 0 89.99 0 92.769 0 95.547 0 100.547 0 108.047 0 112.485 0 117.485 0 121.924 0 126.924 0 131.924 0 136.362 0 142.754 0 145.532 0 153.032 0 155.811 0 160.811 0 167.749 0 172.749 0 177.749 0 181.641 0 184.419 0 189.419 0 193.857 0 197.749 0 201.641 0 206.079 0 209.971 0 214.272 0 222.051 0 226.489 0 231.489 0 235.928 0 240.928 0 245.366 0 253.145 0 257.583 0 262.583 0 267.861 0 271.753 0 274.531 0 277.861 0 282.861 0 287.3 0 290.078 0 295.078 0 298.408 0 302.847 0 306.738" y="505.772" style="fill:#000;font:normal normal 10.0px 'WF_Times New Roman'">i m p l e m e n t i n g c h a n g e s i n t h e b u s i n e s s e s ' m a n a g e m e n t s t r u c t u r e s .</text><text x="50 0 53.33 0 60.83 0 63.608 0 68.608 0 75.547 0 79.438 0 83.877 0 88.315 0 93.315 0 98.315 0 105.815 0 110.815 0 115.815 0 120.254 0 123.584 0 126.362 0 130.801 0 136.631 0 141.631 0 147.461 0 152.461 0 157.461 0 162.275 0 167.09 0 172.09 0 174.868 0 179.868 0 186.807 0 193.477 0 198.477 0 206.255 0 211.255 0 215.693 0 220.693 0 228.193 0 232.632 0 237.632 0 242.632 0 247.07 0 251.509 0 254.287 0 260.679 0 263.457 0 270.957 0 273.735 0 278.735 0 283.174 0 288.174 0 294.004 0 298.442 0 303.442 0 308.442 0 311.772 0 316.772 0 321.772 0 324.551 0 332.329 0 336.768 0 339.546 0 343.984 0 346.763 0 354.263 0 359.263 0 364.263 0 366.763 0 374.263 0 382.041 0 384.819 0 387.598 0 390.376 0 393.154 0 398.154 0 405.654 0 410.654 0 418.984 0 422.876 0 427.876 0 432.314 0 439.814 0 444.253 0 449.253 0 453.145 0 455.923 0 462.314 0 470.093 0 474.531 0 477.31 0 482.31 0 485.088 0 492.588 0 495.918 0 500.356 0 503.135 0 507.573 0 510.352 0 514.79 0 522.29 0 525.068" y="523.772" style="fill:#000;font:normal normal 10.0px 'WF_Times New Roman'">I n t h e s e c o n d q u a r t e r o f 2 0 1 1 , t h e C o m p a n y e x p e c t s t o i n c u r a p p r o x i m a t e l y $ 2 . 0 m i l l i o n o f s u c h c o s t s m a i n l y r e l a t e d t o</text><text x="50 0 55 0 59.438 0 63.877 0 68.877 0 73.315 0 78.315 0 83.315 0 88.315 0 93.594 0 96.924 0 101.362 0 106.362 0 111.362 0 115.801 0 118.579 0 121.357 0 126.357 0 131.357 0 137.749 0 140.527 0 148.027 0 151.919 0 156.357 0 161.357 0 165.796 0 169.126 0 173.564 0 178.843 0 183.843 0 189.673 0 192.451 0 195.229 0 201.621 0 206.621 0 211.621 0 216.06 0 219.39 0 223.828 0 226.606 0 229.385 0 234.385 0 239.385 0 243.276" y="535.772" style="fill:#000;font:normal normal 10.0px 'WF_Times New Roman'">h e a d c o u n t r e d u c t i o n s i n s e v e r a l o f i t s o p e r a t i o n s .</text><text x="62 0 69.222 0 73.113 0 78.113 0 82.005 0 88.396 0 97.288 0 102.288 0 106.18 0 111.18 0 113.958" y="553.772" style="fill:#000;font:italic bold 10.0px 'WF_Times New Roman'">G r o s s M a r g i n</text><text x="50 0 57.222 0 60.552 0 65.552 0 69.443 0 75.835 0 83.613 0 88.052 0 91.292 0 96.201 0 98.979 0 106.479 0 110.918 0 117.31 0 124.248 0 129.248 0 133.687 0 137.017 0 141.455 0 145.894 0 150.894 0 153.672 0 158.11 0 163.11 0 170.049 0 175.049 0 180.879 0 184.771 0 189.209 0 191.987 0 196.426 0 202.817 0 210.039 0 214.478 0 220.869 0 225.869 0 230.869 0 233.369 0 240.869 0 245.869 0 250.308 0 253.638 0 258.076 0 262.515 0 267.515 0 272.793 0 277.231 0 282.231 0 289.731 0 294.731 0 299.731 0 302.231 0 309.731 0 314.731 0 319.17 0 322.5 0 326.938 0 331.377 0 336.377 0 341.655 0 344.434 0 351.934 0 354.712 0 359.712 0 366.65 0 369.98 0 372.759 0 376.089 0 379.98 0 385.259 0 390.259 0 395.259 0 399.697 0 403.027 0 405.806 0 410.244 0 413.574 0 419.966 0 424.966 0 430.796 0 435.796 0 440.796 0 445.61 0 452.925 0 457.363 0 462.363 0 469.863 0 474.863 0 479.863 0 484.863 0 489.863 0 494.863 0 498.193 0 502.632 0 506.523 0 511.523 0 515.962 0 520.4 0 523.179 0 525.957 0 530.957 0 535.396 0 538.174 0 542.849" y="571.772" style="fill:#000;font:normal normal 10.0px 'WF_Times New Roman'">G r o s s m a r g i n a s a p e r c e n t a g e o f s a l e s w a s 6 6 . 2 p e r c e n t a n d 6 6 . 9 p e r c e n t i n t h e f i r s t q u a r t e r s o f 2 0 1 1 a n d 2 0 1 0 , r e s p e c t i v e l y .</text><text x="50 0 56.199 0 61.199 0 68.137 0 73.137 0 77.576 0 82.014 0 85.344 0 89.783 0 94.221 0 98.113 0 105.051 0 110.051 0 115.881 0 120.881 0 123.381 0 130.881 0 135.881 0 140.32 0 143.65 0 148.088 0 152.527 0 157.527 0 160.305 0 164.744 0 169.744 0 176.682 0 181.682 0 186.682 0 189.46 0 194.46 0 197.239 0 203.63 0 210.852 0 215.291 0 221.682 0 226.682 0 230.012 0 232.791 0 240.569 0 245.007 0 248.337 0 251.116 0 253.894 0 261.394 0 268.333 0 271.663 0 276.101 0 279.993 0 284.993 0 287.771 0 293.049 0 298.049 0 303.879 0 306.658 0 311.658 0 316.096 0 319.426 0 323.865 0 328.303 0 332.195 0 336.633 0 344.133 0 347.463 0 351.902 0 355.793 0 358.572 0 366.072 0 370.51 0 375.51 0 379.402 0 382.18 0 388.572 0 393.01 0 398.01 0 405.51 0 408.289 0 413.289 0 420.227 0 424.119 0 428.557 0 431.335 0 435.774 0 442.166 0 449.944 0 452.722 0 460.222 0 465.222 0 471.052 0 476.052 0 479.382 0 484.382 0 489.382 0 494.382 0 498.821 0 501.599 0 507.991 0 511.882 0 516.882 0 519.661 0 524.661 0 529.661 0 536.882 0 539.661 0 542.439 0 549.939" y="583.772" style="fill:#000;font:normal normal 10.0px 'WF_Times New Roman'">T h e d e c r e a s e o f 0 . 7 p e r c e n t a g e p o i n t s w a s p r i m a r i l y a r e s u l t o f i n c r e a s e d r e s i n c o s t s a n d t h e s a l e s m i x o f p r o d u c t s s o l d , w i t h a</text><text x="50 0 55 0 59.438 0 62.769 0 65.547 0 68.325 0 72.764 0 78.042 0 83.042 0 86.282 0 89.521 0 93.413 0 97.852 0 103.13 0 106.46 0 109.79 0 114.79 0 125.068 0 127.847 0 132.847 0 139.785 0 142.563 0 147.002 0 152.002 0 156.44 0 159.771 0 164.209 0 169.209 0 176.147 0 181.147 0 188.647 0 191.978 0 194.756 0 199.756 0 204.194 0 211.694 0 216.133 0 221.133 0 225.024 0 227.803 0 234.194 0 238.633 0 242.524 0 246.416 0 251.416 0 255.854 0 258.633 0 263.071 0 265.85 0 270.288 0 277.788 0 285.01 0 287.788 0 290.566 0 298.066 0 303.066 0 306.396 0 310.835 0 315.273 0 318.052 0 322.49 0 328.32 0 333.32 0 338.32 0 341.099 0 346.099 0 353.877 0 358.315" y="595.772" style="fill:#000;font:normal normal 10.0px 'WF_Times New Roman'">p a r t i a l o f f s e t f r o m t h e l e v e r a g e o n f i x e d c o s t s a s s o c i a t e d w i t h g r e a t e r v o l u m e .</text><text x="50 0 57.222 0 63.613 0 68.613 0 71.392 0 75.283 0 79.722 0 84.722 0 88.613 0 92.505 0 96.943 0 104.443 0 107.222 0 114.722 0 121.943 0 126.943 0 129.722 0 136.66 0 144.16 0 146.938 0 154.438 0 157.217 0 162.217 0 169.155 0 175.825 0 180.825 0 185.825 0 189.717 0 194.717 0 197.495 0 200.273 0 205.273 0 209.712 0 212.49 0 216.929 0 224.429 0 229.99 0 232.769 0 237.769 0 242.207 0 247.207 0 251.646 0 254.424 0 258.862 0 264.141 0 269.702 0 272.48 0 276.919 0 279.697 0 284.136 0 291.914 0 296.353 0 301.353 0 304.131 0 308.022 0 313.022 0 315.801 0 320.801 0 327.739 0 334.409 0 339.409 0 347.188 0 352.188 0 356.626 0 361.626 0 369.126 0 371.904 0 376.904 0 381.343 0 384.121 0 389.121 0 394.121 0 398.56 0 404.951 0 409.39 0 414.39 0 418.281 0 421.06 0 427.451 0 430.781 0 435.22 0 437.998 0 442.437 0 445.215 0 449.653 0 457.153 0 459.932 0 467.432 0 470.21 0 475.21 0 482.148 0 487.148 0 489.927 0 493.818 0 496.597 0 499.927 0 502.705 0 507.705 0 512.705 0 515.483 0 518.262 0 523.262 0 530.762 0 535.762 0 541.592 0 544.37 0 547.148" y="613.772" style="fill:#000;font:normal normal 10.0px 'WF_Times New Roman'">A s d i s c u s s e d i n N o t e 2 t o t h e C o n s o l i d a t e d F i n a n c i a l S t a t e m e n t s , t h e C o m p a n y i n c l u d e s c o s t s r e l a t e d t o t h e d i s t r i b u t i o n o f i t s</text><text x="50 0 55 0 58.33 0 63.33 0 68.33 0 73.33 0 77.769 0 80.547 0 86.938 0 89.717 0 97.217 0 102.217 0 106.655 0 109.434 0 112.212 0 117.212 0 121.65 0 124.98 0 129.656 0 134.331 0 138.223 0 142.661 0 145.439 0 149.878 0 156.27 0 160.708 0 165.708 0 173.208 0 177.646 0 182.646 0 190.425 0 193.203 0 198.203 0 200.981 0 204.873 0 207.651 0 210.981 0 215.42 0 218.198 0 220.977 0 225.977 0 232.915 0 237.354 0 242.354 0 247.354 0 251.792 0 256.792 0 260.684 0 267.622 0 270.952 0 278.174 0 283.735 0 291.514 0 298.735 0 302.065 0 306.79 0 313.735 0 320.127 0 327.065 0 330.396 0 334.834 0 338.726 0 343.726 0 346.504 0 349.282 0 354.282 0 357.061 0 362.061 0 368.999 0 375.669 0 380.669 0 388.447 0 393.447 0 397.886 0 402.886 0 407.886 0 409.688 0 416.079 0 421.079 0 424.409 0 429.409 0 433.301 0 439.692 0 447.471 0 451.909 0 455.149 0 460.059 0 462.837 0 470.337 0 478.115 0 482.554 0 490.054 0 495.054 0 500.054 0 505.332 0 510.332" y="625.772" style="fill:#000;font:normal normal 10.0px 'WF_Times New Roman'">p r o d u c t s i n d e l i v e r y , s a l e s a n d a d m i n i s t r a t i v e e x p e n s e ( D S &amp; A ) . A s a r e s u l t , t h e C o m p a n y ' s g r o s s m a r g i n m a y n o t b e</text><text x="50 0 54.438 0 59.438 0 67.217 0 72.217 0 76.655 0 79.985 0 84.424 0 89.424 0 92.202 0 99.141 0 106.362 0 109.141 0 111.919 0 119.419 0 124.419 0 127.197 0 132.197 0 136.636 0 142.466 0 146.904 0 151.904 0 159.683 0 164.683 0 169.121 0 174.121 0 176.899 0 181.338 0 187.729 0 190.508 0 195.508 0 199.946 0 205.225 0 208.003 0 213.003 0 217.441 0 220.22 0 225.22 0 230.22 0 237.158 0 239.937 0 244.937 0 249.375 0 253.267 0 260.205 0 264.644 0 269.644 0 273.535 0 276.313 0 282.705 0 285.483 0 292.983 0 297.422 0 302.422 0 306.313 0 309.092 0 315.483 0 320.483 0 326.313 0 331.313 0 334.644 0 339.644 0 344.644 0 349.644 0 354.082 0 356.86 0 363.252 0 367.144 0 372.144 0 374.922 0 379.922" y="637.772" style="fill:#000;font:normal normal 10.0px 'WF_Times New Roman'">c o m p a r a b l e w i t h o t h e r c o m p a n i e s t h a t i n c l u d e t h e s e c o s t s i n c o s t s o f p r o d u c t s s o l d .</text><text x="62 0 68.67 0 73.67 0 77.562 0 80.34 0 86.731 0 91.731 0 97.293 0 104.793 0 111.463 0 116.463 0 121.463 0 125.901 0 131.463 0 135.354 0 139.793" y="655.772" style="fill:#000;font:italic bold 10.0px 'WF_Times New Roman'">C o s t s a n d E x p e n s e s</text><text x="50 0 57.222 0 62.783 0 70.562 0 79.731 0 84.731 0 89.17 0 93.608 0 96.938 0 101.377 0 105.815 0 109.707 0 114.146 0 121.646 0 126.084 0 132.476 0 139.414 0 144.414 0 148.853 0 152.183 0 156.621 0 161.06 0 166.06 0 168.838 0 173.276 0 178.276 0 185.215 0 190.215 0 196.045 0 199.937 0 204.375 0 207.153 0 211.592 0 217.983 0 220.762 0 228.262 0 233.262 0 238.262 0 240.762 0 248.262 0 253.262 0 257.7 0 261.03 0 265.469 0 269.907 0 274.907 0 280.186 0 283.516 0 288.516 0 294.346 0 297.124 0 302.124 0 309.063 0 312.393 0 315.171 0 318.501 0 322.393 0 327.671 0 332.671 0 337.671 0 342.109 0 345.439 0 348.218 0 352.656 0 358.486 0 363.486 0 369.316 0 374.316 0 379.316 0 384.131 0 388.945 0 393.945 0 398.384 0 403.384 0 411.162 0 416.162 0 420.601 0 423.931 0 428.369 0 435.869 0 443.091 0 445.869 0 448.647 0 456.147 0 461.147 0 466.147 0 468.647 0 476.147 0 481.147 0 485.586 0 488.916 0 493.354 0 497.793 0 502.793 0 508.071 0 510.85 0 518.35 0 523.35 0 528.35 0 533.35 0 538.35 0 543.259 0 549.277 0 554.277" y="673.772" style="fill:#000;font:normal normal 10.0px 'WF_Times New Roman'">D S &amp; A d e c r e a s e d a s a p e r c e n t a g e o f s a l e s t o 5 3 . 3 p e r c e n t f o r t h e f i r s t q u a r t e r o f 2 0 1 1 , c o m p a r e d w i t h 5 4 . 0 p e r c e n t i n 2 0 1 0 . T h e</text><text x="50 0 55 0 59.438 0 63.877 0 67.207 0 71.646 0 76.084 0 79.976 0 86.914 0 89.692 0 97.192 0 99.971 0 104.971 0 111.909 0 116.909 0 121.909 0 126.348 0 129.678 0 132.456 0 136.895 0 142.725 0 149.946 0 154.385 0 160.776 0 168.555 0 172.993 0 175.771 0 180.771 0 183.55 0 191.05 0 196.05 0 201.05 0 207.988 0 210.767 0 218.267 0 226.045 0 231.045 0 234.375 0 241.313 0 245.752 0 248.992 0 252.231 0 255.01 0 259.448 0 262.227 0 266.665 0 271.665 0 276.943 0 281.943 0 285.273 0 290.273 0 298.052 0 303.052 0 305.83 0 308.608 0 313.608 0 318.608 0 323.047 0 328.325 0 332.217 0 337.217 0 341.655 0 346.655 0 351.655 0 354.434 0 359.434 0 366.934 0 371.372 0 376.372 0 383.872 0 386.65 0 391.65 0 398.589 0 401.367 0 405.806 0 410.806 0 415.244 0 418.574 0 423.013 0 428.013 0 430.791 0 435.791 0 443.291 0 448.291 0 454.121 0 459.121 0 461.899 0 466.899 0 471.899 0 476.338 0 482.168 0 486.06 0 490.498 0 493.276 0 497.715 0 504.106 0 509.106 0 514.106 0 516.885 0 521.885 0 529.663 0 536.602 0 541.602 0 546.602 0 553.54 0 556.318" y="685.772" style="fill:#000;font:normal normal 10.0px 'WF_Times New Roman'">d e c r e a s e i n t h e q u a r t e r w a s m a i n l y d u e t o m o r e e f f i c i e n t p r o m o t i o n a l s p e n d i n g a n d t h e l e v e r a g i n g o f h i g h e r s a l e s v o l u m e d u e t o</text><text x="50 0 52.778 0 57.778 0 64.717 0 68.047 0 70.825 0 75.825 0 80.264 0 87.764 0 92.764 0 97.202 0 99.98 0 104.98 0 108.311 0 115.249 0 120.249 0 126.079 0 130.518 0 134.956 0 138.286 0 141.064 0 145.503 0 148.281 0 155.781 0 160.22 0 165.22 0 169.111 0 171.89 0 178.281 0 181.06 0 186.06 0 190.498 0 193.276 0 198.276 0 203.276 0 207.715 0 215.215 0 217.993 0 225.493 0 228.271 0 233.271 0 236.05 0 242.441 0 246.88 0 251.318 0 256.318 0 259.097 0 261.875 0 266.875 0 271.875 0 279.375 0 284.937 0 289.375 0 292.705 0 295.483 0 298.262 0 302.7 0 305.479 0 308.257 0 315.757 0 320.757 0 323.997 0 327.236 0 331.128 0 335.566 0 338.345 0 341.123 0 343.901 0 348.901 0 356.401 0 359.18 0 364.18 0 368.618 0 372.51 0 379.448 0 382.227 0 390.005 0 395.005 0 398.335 0 403.335 0 408.335 0 412.773 0 420.552 0 424.99 0 429.99 0 432.769 0 439.16 0 446.382 0 450.82 0 457.212 0 462.212 0 464.99 0 469.99 0 474.99 0 479.429 0 485.259 0 489.15 0 494.15 0 498.589 0 503.589 0 508.589 0 511.367 0 516.367 0 523.867 0 528.867" y="697.772" style="fill:#000;font:normal normal 10.0px 'WF_Times New Roman'">t h e f i x e d n a t u r e o f c e r t a i n c o s t s i n c l u d e d i n t h i s c a p t i o n . P a r t i a l l y o f f s e t t i n g t h e s e i m p r o v e m e n t s w a s h i g h e r s p e n d i n g o n</text><text x="50 0 57.778 0 62.217 0 65.547 0 70.547 0 74.985 0 77.764 0 80.542 0 85.542 0 93.042 0 97.48 0 103.872 0 106.65 0 111.65 0 118.589 0 125.259 0 130.259 0 138.037 0 143.037 0 147.476 0 152.476 0 159.976 0 164.414 0 169.414 0 174.414 0 177.192 0 179.971 0 184.971 0 189.971 0 194.409 0 201.909 0 204.688 0 212.188 0 216.626 0 221.626 0 226.626 0 231.064 0 235.503 0 240.503 0 243.281 0 246.611 0 251.05 0 253.828 0 260.767 0 263.545 0 266.323 0 272.715 0 277.153 0 280.393 0 283.633 0 288.633 0 291.963 0 294.741 0 301.133 0 306.133 0 313.633 0 318.633 0 321.963 0 326.963 0 334.185 0 336.963 0 341.963 0 349.463 0 352.241 0 355.02 0 361.411 0 365.303 0 369.741 0 372.52 0 376.958 0 383.35 0 386.68 0 391.68 0 395.01 0 399.448 0 403.887 0 410.278 0 414.717 0 419.717 0 427.217 0 432.217 0 437.217 0 439.995 0 442.773 0 447.773 0 450.552 0 455.552 0 463.052 0 468.052 0 471.382 0 475.82 0 480.82 0 488.32 0 491.65 0 496.089 0 500.527 0 505.527 0 510.527 0 515.527 0 518.306 0 521.084 0 523.862 0 528.862 0 536.362 0 539.141" y="709.772" style="fill:#000;font:normal normal 10.0px 'WF_Times New Roman'">m a r k e t i n g a s t h e C o m p a n y c o n t i n u e d t o c o n c e n t r a t e i t s e f f o r t s o n g r o w i n g i t s s a l e s f o r c e s a n d b u i l d i n g b r a n d r e c o g n i t i o n i n</text><text x="50 0 54.438 0 58.877 0 62.207 0 64.985 0 69.424 0 72.202 0 79.702 0 87.48 0 91.919 0 95.249 0 100.249 0 104.688 0 107.466 0 111.357" y="721.772" style="fill:#000;font:normal normal 10.0px 'WF_Times New Roman'">c e r t a i n m a r k e t s .</text><text x="50 0 55.562 0 60.562 0 65 0 69.438 0 72.217 0 75.547 0 78.325 0 85.264 0 89.155 0 93.594 0 98.594 0 106.372 0 110.811 0 115.811 0 121.089 0 123.867 0 131.646 0 136.646 0 141.084 0 145.522 0 148.301 0 154.692 0 159.131 0 162.461 0 169.399 0 174.399 0 177.178 0 181.069 0 185.508 0 190.508 0 194.399 0 198.291 0 202.729 0 210.229 0 213.008 0 220.508 0 223.286 0 228.286 0 235.225 0 239.116 0 243.555 0 248.555 0 256.333 0 260.771 0 265.771 0 271.05 0 274.38 0 278.818 0 282.71 0 287.71 0 290.488 0 293.267 0 299.658 0 303.55 0 307.988 0 312.427 0 315.205 0 317.983 0 322.983 0 327.983" y="739.772" style="fill:#000;font:normal normal 10.0px 'WF_Times New Roman'">S p e c i f i c s e g m e n t i m p a c t s a r e d i s c u s s e d i n t h e s e g m e n t r e s u l t s s e c t i o n .</text><g style="clip-path: url(/doc_viewer/cmVzb3VyY2VfaWQ9VjBaRVlYUmhSVzUwYVhSNUhrUnZZM1Z0Wlc1ME9rVkdNVU15TlVRMk0wUXhOVE0xT1RZeE5URkRSREJDTWpORk5UaEdNMEZET2tRNVFUazRSRFUzUlVVelJqVTRRVFpGT1RCQlJEQkNNak5FTWpkRFFURTAmcmVmZXJyZXI9d2ZfaG9tZV9wcmV2aWV3?format=svg#clipPath89);"><text x="50 0 55.759 0 59.849 0 64.849 0 67.627 0 74.565 0 79.565 0 85.396 0 92.065 0 97.065 0 102.065 0 104.844 0 109.282 0 114.282 0 117.061" y="19.434" style="fill:#00F;font:normal normal 10.0px 'WF_Times New Roman'">T a b l e o f C o n t e n t s</text><path d="M50,21.592L120.952,21.592" style="stroke:#0000FF;stroke-width:0.4"></path></g><g style="clip-path: url(/doc_viewer/cmVzb3VyY2VfaWQ9VjBaRVlYUmhSVzUwYVhSNUhrUnZZM1Z0Wlc1ME9rVkdNVU15TlVRMk0wUXhOVE0xT1RZeE5URkRSREJDTWpORk5UaEdNMEZET2tRNVFUazRSRFUzUlVVelJqVTRRVFpGT1RCQlJEQkNNak5FTWpkRFFURTAmcmVmZXJyZXI9d2ZfaG9tZV9wcmV2aWV3?format=svg#clipPath90);"><text x="301 0 306" y="768.434" style="fill:#000;font:normal normal 10.0px 'WF_Times New Roman'">2 2</text></g></svg>